# xmcd
#
# Track frame offsets:
#	150
#	17912
#	34267
#	55865
#	73959
#	90984
#	107354
#	129748
#	162119
#	168466
#	186227
#	208538
#
# Disc length: 2987 seconds
#
# Revision: 0
# Processed by: cddbd v1.5.2PL0 Copyright (c) Steve Scherf et al.
# Submitted via: EasyCDDAExtractor 10.0.5.1
#
DISCID=a10ba90c
DTITLE=Various Artist - Swingaling
DYEAR=1996
DGENRE=Hip-Hop
TTITLE0=Ricky Ricardo - Hit road jack [Radio Mix]
TTITLE1=Ricky Ricardo - Swingaling [Radio Mix]
TTITLE2=Ricky Ricardo - Chiquita bonita [Dance hall edit]
TTITLE3=Yorgod - Voulez -boom boom [Radio Mix]
TTITLE4=Bushman - Jump up
TTITLE5=Ricky Ricardo - Swingaling [Spanish Version]
TTITLE6=Ricky Ricardo - Hit The road Jack [Soulsistan Remix]
TTITLE7=Ricky Ricardo - Chiquita bonita [Grand club remix]
TTITLE8=Ricky Ricardo - Buckwilding
TTITLE9=Ricky Ricardo - Hit the road Jack [Original funk remix]
TTITLE10=Ricky Ricardo - Hit the road Jack [Marco's remix]
TTITLE11=Ricky Ricardo - Swingaling [Acapella]
EXTD=
EXTT0=
EXTT1=
EXTT2=
EXTT3=
EXTT4=
EXTT5=
EXTT6=
EXTT7=
EXTT8=
EXTT9=
EXTT10=
EXTT11=
PLAYORDER=
